<svg version="1.2" xmlns="http://www.w3.org/2000/svg" viewBox="0 0 20 20" width="16" height="16">
	<title>New Project</title>
	<style>
		.s0 { fill: #000000 } 
	</style>
	<filter id="f0">
		<feFlood flood-color="#ffffff" flood-opacity="1" />
		<feBlend mode="normal" in2="SourceGraphic"/>
		<feComposite in2="SourceAlpha" operator="in" />
	</filter>
	<g id="Folder 1" filter="url(#f0)">
		<path id="Layer" class="s0" d="m17.4 3.6c1.7 1.7 2.6 4 2.6 6.4 0 2.4-0.9 4.7-2.6 6.3-1.7 1.7-3.9 2.7-6.3 2.7h-0.1l-3.6-0.2c-0.4 0-0.8-0.1-1-0.4-0.3-0.3-0.4-0.6-0.4-1v-10.5q0.7 0.1 1.4 0.4 0.8 0.4 1.4 1.1v7.6l2.3 0.1c1.6 0 3.1-0.7 4.3-1.8 1.1-1.2 1.7-2.7 1.7-4.3 0-1.6-0.6-3.2-1.8-4.3-1.1-1.2-2.6-1.8-4.2-1.9h-2.3v2.7q-0.8 0-1.6-0.4c-0.5-0.1-0.9-0.5-1.2-1v-2.7q0-0.3 0.1-0.5 0.1-0.3 0.3-0.5 0.2-0.2 0.5-0.3 0.2-0.1 0.5-0.1h3.7c2.4 0 4.6 0.9 6.3 2.6z"/>
		<path id="Layer" class="s0" d="m2.3 18.8c-0.4 0-0.7-0.1-1-0.4-0.3-0.3-0.4-0.6-0.5-1v-9.2q0-0.3 0.2-0.5 0.1-0.3 0.3-0.5 0.2-0.2 0.4-0.3 0.3-0.1 0.6-0.1 0.3 0 0.6 0.1 0.2 0.1 0.4 0.3 0.2 0.2 0.3 0.5 0.2 0.2 0.2 0.5v9.2c0 0.4-0.2 0.7-0.5 1-0.2 0.3-0.6 0.4-1 0.4zm0-13.9c-0.4 0-0.7-0.1-1-0.4-0.3-0.3-0.4-0.6-0.5-1v-0.1c0.1-0.4 0.2-0.8 0.5-1 0.3-0.3 0.6-0.5 1-0.5 0.4 0 0.8 0.2 1 0.5 0.3 0.2 0.5 0.6 0.5 1v0.1c0 0.4-0.2 0.7-0.5 1-0.2 0.3-0.6 0.4-1 0.4z"/>
	</g>
</svg>